<svg xmlns="http://www.w3.org/2000/svg" xmlns:xlink="http://www.w3.org/1999/xlink" width="2000" zoomAndPan="magnify" viewBox="0 0 1500 1499.999933" height="2000" preserveAspectRatio="xMidYMid meet" version="1.0"><defs><g/><clipPath id="4520159ae1"><path d="M 750 0 C 335.785156 0 0 335.785156 0 750 C 0 1164.214844 335.785156 1500 750 1500 C 1164.214844 1500 1500 1164.214844 1500 750 C 1500 335.785156 1164.214844 0 750 0 Z M 750 0 " clip-rule="nonzero"/></clipPath><clipPath id="70876cf78f"><path d="M 0 0 L 1500 0 L 1500 1500 L 0 1500 Z M 0 0 " clip-rule="nonzero"/></clipPath><clipPath id="2d314e9501"><path d="M 750 0 C 335.785156 0 0 335.785156 0 750 C 0 1164.214844 335.785156 1500 750 1500 C 1164.214844 1500 1500 1164.214844 1500 750 C 1500 335.785156 1164.214844 0 750 0 Z M 750 0 " clip-rule="nonzero"/></clipPath><clipPath id="fae1107464"><rect x="0" width="1500" y="0" height="1500"/></clipPath><clipPath id="189bcf9180"><path d="M 763 889 L 1066 889 L 1066 1195 L 763 1195 Z M 763 889 " clip-rule="nonzero"/></clipPath><clipPath id="cd7ba5410f"><path d="M 878.40625 830.113281 L 1125.085938 998.867188 L 951.058594 1253.253906 L 704.378906 1084.5 Z M 878.40625 830.113281 " clip-rule="nonzero"/></clipPath><clipPath id="a27b446d73"><path d="M 1001.746094 914.492188 C 933.628906 867.890625 839.457031 887.046875 791.410156 957.28125 C 743.363281 1027.515625 759.636719 1122.226562 827.753906 1168.824219 C 895.871094 1215.425781 990.042969 1196.265625 1038.089844 1126.035156 C 1086.132812 1055.800781 1069.863281 961.089844 1001.746094 914.492188 Z M 1001.746094 914.492188 " clip-rule="nonzero"/></clipPath><clipPath id="6bc5046512"><path d="M 0 0 L 303 0 L 303 306 L 0 306 Z M 0 0 " clip-rule="nonzero"/></clipPath><clipPath id="182fc65b4f"><path d="M 115.40625 -58.886719 L 362.085938 109.867188 L 188.058594 364.253906 L -58.621094 195.5 Z M 115.40625 -58.886719 " clip-rule="nonzero"/></clipPath><clipPath id="ad64a733f2"><path d="M 238.746094 25.492188 C 170.628906 -21.109375 76.457031 -1.953125 28.410156 68.28125 C -19.636719 138.515625 -3.363281 233.226562 64.753906 279.824219 C 132.871094 326.425781 227.042969 307.265625 275.089844 237.035156 C 323.132812 166.800781 306.863281 72.089844 238.746094 25.492188 Z M 238.746094 25.492188 " clip-rule="nonzero"/></clipPath><clipPath id="ccdeb40997"><rect x="0" width="303" y="0" height="306"/></clipPath><clipPath id="2aca546884"><rect x="0" width="1246" y="0" height="956"/></clipPath></defs><g clip-path="url(#4520159ae1)"><g transform="matrix(1, 0, 0, 1, 0, 0.000000000000112861)"><g clip-path="url(#fae1107464)"><g clip-path="url(#70876cf78f)"><g clip-path="url(#2d314e9501)"><rect x="-330" width="2160" fill="#2f052f" height="2159.999904" y="-329.999985" fill-opacity="1"/></g></g></g></g></g><g fill="#ffffff" fill-opacity="1"><g transform="translate(-9.593638, 999.524016)"><g><path d="M 154 129.390625 C 137.558594 129.390625 123.582031 122.328125 112.078125 108.207031 C 101.433594 95.148438 96.113281 81.8125 96.113281 68.199219 C 96.113281 63.0625 97.257812 57.632812 99.542969 51.917969 C 102.628906 44.207031 107.585938 38.640625 114.414062 35.226562 L 122.101562 50.601562 L 104.914062 50.601562 C 104.914062 43.746094 108.152344 38.375 114.632812 34.488281 C 116.335938 33.464844 118.53125 32.417969 121.21875 31.34375 L 127.601562 47.300781 L 119.914062 31.925781 L 126.515625 28.628906 L 134.203125 44 L 125.773438 29.019531 L 143.636719 18.972656 L 175.804688 2.332031 C 322.394531 -73.136719 430.996094 -145.820312 501.613281 -215.71875 L 513.703125 -203.5 L 500.980469 -191.945312 C 435.007812 -264.59375 377.910156 -339.863281 329.6875 -417.757812 L 316.113281 -439.25 L 315.730469 -440.015625 C 312.234375 -447.007812 309.96875 -452.582031 308.929688 -456.734375 L 325.601562 -460.902344 L 310.230469 -453.21875 C 306.820312 -460.035156 305.117188 -467.367188 305.117188 -475.203125 C 305.117188 -486.550781 309.359375 -496.46875 317.847656 -504.957031 L 330.003906 -492.804688 L 316.582031 -503.542969 L 321.578125 -509.785156 L 322.25 -510.457031 L 322.316406 -510.519531 C 322.140625 -510.316406 321.953125 -510.0625 321.753906 -509.761719 C 320.195312 -507.425781 319.414062 -504.707031 319.414062 -501.605469 L 319.414062 -506.808594 L 331.804688 -525.390625 L 383.324219 -525.390625 L 392.757812 -515.957031 C 405.425781 -503.289062 418.710938 -485.757812 432.605469 -463.367188 C 436.214844 -457.59375 441.300781 -449.605469 447.863281 -439.398438 C 454.183594 -429.5625 459.753906 -421.550781 464.570312 -415.355469 L 464.863281 -414.980469 L 465.136719 -414.585938 C 478.058594 -395.921875 495.730469 -373.027344 518.152344 -345.902344 C 540.609375 -318.738281 561.21875 -295.410156 579.984375 -275.925781 L 567.605469 -264.003906 L 554.300781 -274.886719 C 573.453125 -298.292969 596.527344 -334.296875 623.53125 -382.902344 C 650.539062 -431.511719 668.277344 -468.171875 676.746094 -492.878906 L 693.007812 -487.304688 L 676.050781 -490.128906 C 676.875 -495.070312 679.558594 -506.054688 684.097656 -523.082031 C 688.414062 -539.269531 692.742188 -557.835938 697.074219 -578.789062 L 713.90625 -575.304688 L 715.132812 -558.160156 L 684.332031 -555.960938 L 604.859375 -551.542969 L 344.433594 -532.863281 L 311.347656 -530.65625 C 277.347656 -527.695312 252.398438 -526.21875 236.503906 -526.21875 C 231.710938 -526.21875 227.332031 -526.878906 223.367188 -528.199219 L 228.800781 -544.503906 L 228.800781 -527.316406 C 225.363281 -527.316406 222.066406 -528.105469 218.914062 -529.683594 C 220.601562 -528.839844 222.429688 -528.417969 224.402344 -528.417969 L 222.285156 -528.417969 L 211.214844 -531.183594 L 205.648438 -536.75 L 217.800781 -548.90625 L 206.382812 -536.058594 C 189.335938 -551.210938 180.8125 -567.59375 180.8125 -585.207031 L 180.8125 -586.628906 L 184.152344 -606.664062 L 188.046875 -610.558594 C 192.296875 -614.808594 198.183594 -618.8125 205.714844 -622.578125 L 213.402344 -607.207031 L 203.867188 -621.507812 C 207.953125 -624.230469 214.773438 -626.546875 224.332031 -628.460938 C 231.296875 -630.011719 238.386719 -631.1875 245.605469 -631.988281 C 252.125 -632.710938 258.28125 -633.4375 264.070312 -634.160156 L 264.449219 -634.207031 L 264.832031 -634.238281 C 301.953125 -637.207031 323.3125 -638.691406 328.902344 -638.691406 L 328.902344 -621.503906 L 327.347656 -638.621094 L 351.546875 -640.824219 L 482.636719 -651.289062 C 533.300781 -655.328125 590.933594 -659.550781 655.535156 -663.953125 C 709.890625 -668.363281 764.683594 -671.671875 819.921875 -673.878906 L 820.609375 -656.707031 L 819.253906 -673.839844 C 875.4375 -678.277344 917.324219 -680.492188 944.910156 -680.492188 C 962.96875 -680.492188 976.800781 -672.867188 986.402344 -657.613281 C 994.398438 -644.914062 998.398438 -632.878906 998.398438 -621.503906 L 998.398438 -620.648438 L 996.898438 -605.648438 L 995.480469 -602.820312 C 992.574219 -597.003906 986.820312 -591.40625 978.21875 -586.03125 L 977.527344 -585.597656 L 976.796875 -585.230469 C 972.738281 -583.203125 967.164062 -581.300781 960.078125 -579.53125 C 948.265625 -576.378906 937.453125 -574.394531 927.636719 -573.578125 L 926.207031 -590.707031 L 928.039062 -573.617188 C 906.898438 -571.351562 890.152344 -570.21875 877.808594 -570.21875 L 877.808594 -587.40625 L 880.238281 -570.390625 C 874.773438 -569.609375 867.46875 -568.839844 858.335938 -568.078125 C 849.46875 -567.339844 839.871094 -566.601562 829.53125 -565.863281 L 828.921875 -565.816406 L 828.308594 -565.816406 C 821.6875 -565.816406 812.863281 -565.128906 801.839844 -563.75 L 800.777344 -563.617188 L 799.707031 -563.617188 C 799.1875 -563.617188 798.847656 -563.605469 798.683594 -563.578125 C 799.28125 -563.675781 799.984375 -563.929688 800.792969 -564.332031 L 793.105469 -579.707031 L 810.09375 -577.089844 L 807.851562 -562.515625 L 807.800781 -562.238281 C 803.269531 -538.082031 793.566406 -502.570312 778.6875 -455.703125 C 763.824219 -408.878906 751.492188 -374.535156 741.691406 -352.671875 L 741.542969 -352.339844 L 741.378906 -352.015625 C 735.804688 -340.871094 727.59375 -327.933594 716.742188 -313.207031 L 702.90625 -323.402344 L 717.492188 -314.3125 C 685.613281 -263.15625 659.570312 -224.859375 639.367188 -199.414062 L 625.90625 -210.101562 L 635.441406 -224.402344 C 640.347656 -221.128906 647.4375 -215.632812 656.710938 -207.90625 L 645.707031 -194.703125 L 656.019531 -208.453125 L 708.820312 -168.851562 C 748.484375 -140.003906 794.980469 -110.527344 848.308594 -80.417969 C 901.808594 -50.207031 953.65625 -23.46875 1003.839844 -0.191406 L 996.609375 15.398438 L 1002.042969 -0.90625 C 1009.417969 1.550781 1017.867188 5.164062 1027.394531 9.925781 L 1019.710938 25.300781 L 1026.480469 9.503906 C 1032.75 12.191406 1038.957031 15.726562 1045.097656 20.113281 L 1046.257812 20.941406 L 1052.761719 27.445312 C 1059.050781 33.734375 1062.195312 41.453125 1062.195312 50.601562 C 1062.195312 64.878906 1056.117188 78.097656 1043.960938 90.253906 L 1043.605469 90.613281 L 1033.328125 99.746094 L 1021.910156 86.902344 L 1034.0625 99.054688 C 1031.792969 101.324219 1027.988281 104.238281 1022.644531 107.800781 L 1013.109375 93.5 L 1025.261719 105.65625 L 1016.929688 113.988281 L 993.308594 113.988281 C 986.203125 113.988281 980.707031 113.015625 976.824219 111.074219 L 974.328125 109.828125 L 972.355469 107.855469 C 974.976562 110.476562 977.929688 111.789062 981.207031 111.789062 C 974.996094 111.789062 969.476562 109.378906 964.65625 104.554688 L 976.808594 92.402344 L 971.375 108.707031 C 969.078125 107.941406 961.648438 105.34375 949.089844 100.910156 L 948.449219 100.683594 L 947.828125 100.40625 C 927.714844 91.46875 907.601562 81.785156 887.496094 71.359375 L 813.691406 35.011719 L 813.28125 34.78125 C 802.503906 28.71875 796.53125 25.492188 795.371094 25.105469 L 793.652344 24.53125 L 792.09375 23.613281 C 741.800781 -5.96875 691.15625 -38.867188 640.152344 -75.085938 L 639.972656 -75.214844 L 639.792969 -75.351562 C 613.160156 -95.328125 586.527344 -116.410156 559.902344 -138.597656 L 570.90625 -151.800781 L 583.292969 -139.886719 C 564.441406 -120.28125 545.558594 -102.914062 526.640625 -87.78125 L 515.90625 -101.199219 L 527.484375 -88.5 C 502.046875 -65.304688 478.785156 -46.179688 457.695312 -31.113281 L 457.402344 -30.90625 L 457.105469 -30.710938 C 401.753906 5.453125 353.359375 35 311.925781 57.9375 C 225.730469 105.570312 173.089844 129.390625 154 129.390625 Z M 154 95.011719 C 159.542969 95.011719 173.636719 89.769531 196.277344 79.28125 C 220.839844 67.902344 253.839844 50.761719 295.277344 27.863281 C 335.980469 5.332031 383.652344 -23.785156 438.304688 -59.488281 L 447.703125 -45.101562 L 437.714844 -59.085938 C 457.691406 -73.355469 479.894531 -91.628906 504.324219 -113.902344 L 504.734375 -114.277344 L 505.167969 -114.621094 C 522.917969 -128.820312 540.699219 -145.1875 558.515625 -163.714844 L 569.609375 -175.253906 L 581.910156 -165.003906 C 608.082031 -143.191406 634.253906 -122.476562 660.417969 -102.851562 L 650.105469 -89.101562 L 660.058594 -103.113281 C 710.257812 -67.464844 760.078125 -35.097656 809.523438 -6.015625 L 800.808594 8.800781 L 806.242188 -7.503906 C 809.480469 -6.425781 817.445312 -2.316406 830.132812 4.820312 L 821.707031 19.800781 L 829.300781 4.382812 L 903.320312 40.84375 C 922.8125 50.949219 942.304688 60.335938 961.789062 68.996094 L 954.808594 84.699219 L 960.527344 68.492188 C 972.902344 72.859375 980.140625 75.394531 982.242188 76.09375 L 986.09375 77.378906 L 988.960938 80.246094 C 987.074219 78.359375 984.488281 77.414062 981.207031 77.414062 C 987.421875 77.414062 992.574219 79.457031 996.664062 83.546875 L 984.507812 95.699219 L 992.195312 80.328125 C 991.171875 79.816406 990.421875 79.53125 989.941406 79.472656 C 990.699219 79.566406 991.824219 79.613281 993.308594 79.613281 L 1009.808594 79.613281 L 1009.808594 96.800781 L 997.65625 84.648438 L 1002.160156 80.144531 L 1003.574219 79.199219 C 1007.03125 76.894531 1009.089844 75.410156 1009.753906 74.746094 L 1010.113281 74.390625 L 1020.390625 65.253906 L 1031.808594 78.101562 L 1019.65625 65.945312 C 1025.101562 60.503906 1027.820312 55.386719 1027.820312 50.601562 C 1027.820312 50.945312 1028.03125 51.332031 1028.457031 51.753906 L 1022.957031 46.253906 L 1035.109375 34.101562 L 1025.121094 48.085938 C 1020.992188 45.140625 1016.933594 42.808594 1012.9375 41.097656 L 1012.472656 40.898438 L 1012.023438 40.671875 C 1003.949219 36.636719 997 33.648438 991.175781 31.707031 L 990.253906 31.398438 L 989.378906 30.992188 C 938.363281 7.332031 885.707031 -19.824219 831.40625 -50.484375 C 776.933594 -81.242188 729.195312 -111.53125 688.195312 -141.351562 L 635.039062 -181.214844 L 634.703125 -181.496094 C 626.371094 -188.4375 620.261719 -193.207031 616.371094 -195.800781 L 600.828125 -206.164062 L 612.445312 -220.789062 C 631.839844 -245.210938 657.132812 -282.445312 688.320312 -332.492188 L 688.671875 -333.0625 L 689.070312 -333.597656 C 698.753906 -346.738281 705.941406 -358.003906 710.632812 -367.390625 L 726.007812 -359.703125 L 710.324219 -366.734375 C 719.589844 -387.402344 731.457031 -420.527344 745.925781 -466.105469 C 760.378906 -511.636719 769.742188 -545.792969 774.015625 -568.574219 L 790.90625 -565.40625 L 773.917969 -568.019531 L 777.472656 -591.101562 L 785.421875 -595.078125 C 789.308594 -597.019531 794.070312 -597.992188 799.707031 -597.992188 L 799.707031 -580.804688 L 797.574219 -597.859375 C 810.015625 -599.414062 820.261719 -600.191406 828.308594 -600.191406 L 828.308594 -583.003906 L 827.082031 -600.148438 C 837.277344 -600.878906 846.746094 -601.605469 855.480469 -602.332031 C 863.945312 -603.039062 870.578125 -603.734375 875.378906 -604.421875 L 876.585938 -604.59375 L 877.808594 -604.59375 C 888.929688 -604.59375 904.453125 -605.660156 924.378906 -607.796875 L 924.578125 -607.816406 L 924.78125 -607.832031 C 932.566406 -608.480469 941.550781 -610.164062 951.738281 -612.878906 C 956.386719 -614.042969 959.613281 -615.074219 961.421875 -615.980469 L 969.109375 -600.605469 L 960 -615.179688 C 962.085938 -616.484375 963.671875 -617.625 964.761719 -618.605469 C 965.042969 -618.859375 965.230469 -619.042969 965.328125 -619.164062 C 965.144531 -618.941406 964.949219 -618.617188 964.734375 -618.191406 L 980.109375 -610.503906 L 963.007812 -612.214844 L 964.105469 -623.214844 L 981.207031 -621.503906 L 964.019531 -621.503906 C 964.019531 -626.265625 961.785156 -632.195312 957.3125 -639.296875 C 954.453125 -643.84375 950.316406 -646.117188 944.910156 -646.117188 C 918.226562 -646.117188 877.242188 -643.9375 821.960938 -639.570312 L 821.628906 -639.546875 L 821.292969 -639.53125 C 766.527344 -637.339844 712.054688 -634.050781 657.875 -629.65625 C 593.410156 -625.261719 535.90625 -621.050781 485.371094 -617.023438 L 354.660156 -606.589844 L 329.683594 -604.316406 L 328.902344 -604.316406 C 324.226562 -604.316406 303.785156 -602.871094 267.574219 -599.972656 L 266.203125 -617.105469 L 268.335938 -600.050781 C 262.390625 -599.308594 256.078125 -598.566406 249.398438 -597.824219 C 243.417969 -597.15625 237.308594 -596.132812 231.074219 -594.75 C 227.972656 -594.132812 225.511719 -593.539062 223.679688 -592.976562 C 223.039062 -592.78125 222.546875 -592.609375 222.203125 -592.464844 C 222.335938 -592.519531 222.578125 -592.667969 222.9375 -592.90625 L 222.046875 -592.3125 L 221.089844 -591.832031 C 216.886719 -589.730469 213.972656 -587.871094 212.355469 -586.253906 L 200.203125 -598.40625 L 217.15625 -595.578125 L 214.957031 -582.378906 L 198 -585.207031 L 215.191406 -585.207031 C 215.191406 -577.882812 219.867188 -570.066406 229.222656 -561.75 L 229.597656 -561.414062 L 232.15625 -558.859375 L 220.003906 -546.703125 L 224.171875 -563.378906 L 228.570312 -562.28125 L 224.402344 -545.605469 L 224.402344 -562.792969 C 227.839844 -562.792969 231.136719 -562.003906 234.289062 -560.429688 C 232.601562 -561.269531 230.773438 -561.691406 228.800781 -561.691406 L 231.589844 -561.691406 L 234.238281 -560.8125 C 234.671875 -560.664062 235.429688 -560.59375 236.503906 -560.59375 C 251.40625 -560.59375 275.589844 -562.046875 309.058594 -564.953125 L 341.972656 -567.148438 L 602.953125 -585.867188 L 681.882812 -590.25 L 735.339844 -594.066406 L 730.738281 -571.824219 C 726.273438 -550.238281 721.796875 -531.039062 717.3125 -514.226562 C 713.054688 -498.253906 710.601562 -488.339844 709.960938 -484.480469 L 709.726562 -483.074219 L 709.265625 -481.730469 C 700.136719 -455.101562 681.574219 -416.59375 653.582031 -366.207031 C 625.582031 -315.808594 601.359375 -278.113281 580.90625 -253.117188 L 568.652344 -238.136719 L 555.222656 -252.082031 C 535.855469 -272.191406 514.667969 -296.167969 491.65625 -324.003906 C 468.613281 -351.878906 450.351562 -375.550781 436.871094 -395.019531 L 451.003906 -404.804688 L 437.4375 -394.25 C 431.988281 -401.257812 425.824219 -410.109375 418.945312 -420.808594 C 412.304688 -431.136719 407.125 -439.28125 403.402344 -445.238281 C 390.898438 -465.382812 379.246094 -480.851562 368.449219 -491.652344 L 364.050781 -496.050781 L 376.203125 -508.203125 L 376.203125 -491.015625 L 341.003906 -491.015625 L 341.003906 -508.203125 L 355.304688 -498.671875 L 350.902344 -492.070312 L 336.601562 -501.605469 L 353.789062 -501.605469 C 353.789062 -496.125 351.378906 -490.972656 346.554688 -486.152344 L 334.402344 -498.304688 L 347.824219 -487.566406 L 342.828125 -481.324219 L 342.15625 -480.652344 C 340.378906 -478.875 339.492188 -477.058594 339.492188 -475.203125 C 339.492188 -472.777344 339.984375 -470.570312 340.976562 -468.589844 L 341.820312 -466.902344 L 342.277344 -465.074219 C 342.707031 -463.359375 344.105469 -460.132812 346.476562 -455.390625 L 331.101562 -447.703125 L 345.636719 -456.882812 L 358.917969 -435.851562 C 406.03125 -359.742188 461.867188 -286.144531 526.429688 -215.058594 L 537.496094 -202.867188 L 525.796875 -191.285156 C 452.675781 -118.914062 341.277344 -44.195312 191.597656 32.867188 L 159.699219 49.367188 L 151.800781 34.101562 L 160.226562 49.082031 L 142.261719 59.1875 L 134.648438 62.992188 L 133.984375 63.257812 C 133.003906 63.652344 132.449219 63.886719 132.320312 63.964844 C 133.070312 63.511719 133.832031 62.902344 134.597656 62.136719 C 137.726562 59.007812 139.289062 55.164062 139.289062 50.601562 L 139.289062 61.222656 L 129.789062 65.972656 C 130.75 65.492188 131.308594 65.0625 131.460938 64.683594 C 130.8125 66.300781 130.488281 67.472656 130.488281 68.199219 C 130.488281 73.65625 133.234375 79.753906 138.726562 86.492188 C 143.351562 92.171875 148.445312 95.011719 154 95.011719 Z M 487.371094 -901.8125 L 495.417969 -904.496094 L 504.671875 -902.183594 C 519.152344 -898.777344 533.53125 -892.03125 547.816406 -881.949219 C 562.816406 -871.6875 585.832031 -848.773438 616.859375 -813.207031 C 647.734375 -777.808594 667.503906 -752.238281 676.167969 -736.488281 L 676.328125 -736.195312 L 676.480469 -735.894531 C 682.089844 -724.671875 684.894531 -712.945312 684.894531 -700.707031 C 684.894531 -686.347656 680.296875 -673.554688 671.109375 -662.320312 C 661.070312 -650.054688 647.101562 -643.917969 629.207031 -643.917969 C 615.660156 -643.917969 604.273438 -648.53125 595.050781 -657.753906 L 607.207031 -669.90625 L 596.203125 -656.703125 C 591.003906 -661.035156 586.234375 -665.800781 581.902344 -671.003906 L 581.3125 -671.707031 L 572.003906 -685.671875 C 553.40625 -712.851562 525.636719 -747.445312 488.695312 -789.457031 L 469.496094 -810.917969 L 468.972656 -811.644531 C 458.410156 -826.265625 452.121094 -836.609375 450.097656 -842.671875 L 466.402344 -848.109375 L 451.03125 -840.421875 C 448.355469 -845.773438 447.015625 -851.636719 447.015625 -858.007812 C 447.015625 -871.175781 453.410156 -882.410156 466.195312 -891.707031 L 467.34375 -892.542969 L 477.871094 -897.808594 L 486.691406 -901.585938 Z M 498.238281 -869.203125 L 492.804688 -885.507812 L 499.574219 -869.710938 L 491.875 -866.410156 L 485.105469 -882.207031 L 492.789062 -866.835938 L 483.992188 -862.433594 L 476.304688 -877.808594 L 486.414062 -863.90625 C 483.066406 -861.472656 481.390625 -859.507812 481.390625 -858.007812 C 481.390625 -857.046875 481.519531 -856.308594 481.777344 -855.792969 L 482.324219 -854.703125 L 482.710938 -853.542969 C 483.621094 -850.804688 488.332031 -843.550781 496.839844 -831.769531 L 482.90625 -821.707031 L 495.714844 -833.167969 L 514.511719 -812.15625 C 552.371094 -769.101562 581.070312 -733.296875 600.605469 -704.742188 L 609.40625 -691.539062 L 595.105469 -682.007812 L 608.308594 -693.007812 C 611.308594 -689.410156 614.609375 -686.109375 618.207031 -683.109375 L 618.808594 -682.609375 L 619.359375 -682.058594 C 621.871094 -679.550781 625.152344 -678.292969 629.207031 -678.292969 C 636.242188 -678.292969 641.34375 -680.226562 644.503906 -684.089844 C 648.511719 -688.992188 650.519531 -694.53125 650.519531 -700.707031 C 650.519531 -707.535156 648.921875 -714.140625 645.734375 -720.519531 L 661.105469 -728.207031 L 646.046875 -719.921875 C 638.574219 -733.507812 620.210938 -757.070312 590.953125 -790.609375 C 561.847656 -823.976562 540.859375 -845.0625 527.992188 -853.867188 C 517.34375 -861.382812 506.792969 -866.371094 496.335938 -868.832031 L 491.9375 -869.933594 L 496.105469 -886.609375 L 501.539062 -870.300781 Z M 498.238281 -869.203125 "/></g></g></g><g fill="#ffffff" fill-opacity="1"><g transform="translate(-9.593638, 999.524016)"><g><path d="M 154 112.203125 C 143 112.203125 133.460938 107.25 125.390625 97.34375 C 117.328125 87.445312 113.296875 77.734375 113.296875 68.203125 C 113.296875 65.265625 114.03125 61.960938 115.5 58.296875 C 116.96875 54.628906 119.171875 52.0625 122.109375 50.59375 C 122.109375 49.863281 123.941406 48.765625 127.609375 47.296875 L 134.203125 44 L 151.796875 34.09375 L 183.703125 17.59375 C 331.835938 -58.664062 441.835938 -132.363281 513.703125 -203.5 C 448.441406 -275.363281 391.976562 -349.800781 344.3125 -426.8125 L 331.109375 -447.703125 C 328.171875 -453.566406 326.335938 -457.96875 325.609375 -460.90625 C 323.398438 -465.300781 322.296875 -470.066406 322.296875 -475.203125 C 322.296875 -481.804688 324.863281 -487.675781 330 -492.8125 L 334.40625 -498.3125 C 335.875 -499.769531 336.609375 -500.867188 336.609375 -501.609375 L 341 -508.203125 L 376.203125 -508.203125 L 380.609375 -503.8125 C 392.335938 -492.070312 404.800781 -475.570312 418 -454.3125 C 421.664062 -448.4375 426.800781 -440.363281 433.40625 -430.09375 C 440.007812 -419.832031 445.875 -411.40625 451 -404.8125 C 464.207031 -385.738281 482.175781 -362.453125 504.90625 -334.953125 C 527.632812 -307.453125 548.535156 -283.800781 567.609375 -264 C 587.410156 -288.195312 611.0625 -325.046875 638.5625 -374.546875 C 666.0625 -424.054688 684.210938 -461.644531 693.015625 -487.3125 C 693.742188 -491.707031 696.304688 -502.15625 700.703125 -518.65625 C 705.109375 -535.15625 709.507812 -554.039062 713.90625 -575.3125 L 683.109375 -573.109375 L 603.90625 -568.703125 L 343.203125 -550.015625 L 310.203125 -547.8125 C 276.472656 -544.875 251.90625 -543.40625 236.5 -543.40625 C 233.570312 -543.40625 231.003906 -543.769531 228.796875 -544.5 C 228.066406 -544.5 227.332031 -544.679688 226.59375 -545.046875 C 225.863281 -545.421875 225.132812 -545.609375 224.40625 -545.609375 L 220 -546.703125 L 217.796875 -548.90625 C 204.597656 -560.644531 198 -572.742188 198 -585.203125 L 200.203125 -598.40625 C 203.140625 -601.34375 207.539062 -604.273438 213.40625 -607.203125 C 215.601562 -608.671875 220.367188 -610.140625 227.703125 -611.609375 C 234.304688 -613.078125 240.90625 -614.175781 247.5 -614.90625 C 254.101562 -615.644531 260.335938 -616.378906 266.203125 -617.109375 C 302.867188 -620.046875 323.769531 -621.515625 328.90625 -621.515625 L 353.109375 -623.703125 C 389.773438 -626.640625 433.40625 -630.125 484 -634.15625 C 534.601562 -638.1875 592.171875 -642.40625 656.703125 -646.8125 C 710.972656 -651.207031 765.609375 -654.503906 820.609375 -656.703125 C 876.347656 -661.109375 917.78125 -663.3125 944.90625 -663.3125 C 956.644531 -663.3125 965.628906 -658.359375 971.859375 -648.453125 C 978.097656 -638.554688 981.21875 -629.578125 981.21875 -621.515625 L 980.109375 -610.515625 C 978.640625 -607.578125 974.972656 -604.273438 969.109375 -600.609375 C 966.179688 -599.140625 961.78125 -597.671875 955.90625 -596.203125 C 944.90625 -593.273438 935.007812 -591.441406 926.21875 -590.703125 C 905.675781 -588.503906 889.539062 -587.40625 877.8125 -587.40625 C 872.675781 -586.675781 865.707031 -585.941406 856.90625 -585.203125 C 848.113281 -584.472656 838.582031 -583.742188 828.3125 -583.015625 C 820.976562 -583.015625 811.445312 -582.28125 799.71875 -580.8125 C 796.78125 -580.8125 794.578125 -580.441406 793.109375 -579.703125 L 790.90625 -565.40625 C 786.507812 -541.9375 776.976562 -507.101562 762.3125 -460.90625 C 747.644531 -414.707031 735.546875 -380.972656 726.015625 -359.703125 C 720.878906 -349.441406 713.175781 -337.34375 702.90625 -323.40625 C 671.375 -272.800781 645.707031 -235.035156 625.90625 -210.109375 C 630.3125 -207.171875 636.910156 -202.035156 645.703125 -194.703125 L 698.515625 -155.109375 C 738.847656 -125.773438 785.960938 -95.890625 839.859375 -65.453125 C 893.765625 -35.015625 946.015625 -8.0625 996.609375 15.40625 C 1003.210938 17.601562 1010.914062 20.898438 1019.71875 25.296875 C 1024.851562 27.492188 1029.984375 30.425781 1035.109375 34.09375 L 1040.609375 39.59375 C 1043.546875 42.53125 1045.015625 46.195312 1045.015625 50.59375 C 1045.015625 60.132812 1040.613281 69.300781 1031.8125 78.09375 L 1021.921875 86.90625 C 1020.453125 88.363281 1017.515625 90.5625 1013.109375 93.5 L 1009.8125 96.796875 L 993.3125 96.796875 C 988.914062 96.796875 985.984375 96.429688 984.515625 95.703125 C 983.773438 94.960938 982.671875 94.59375 981.203125 94.59375 C 979.742188 94.59375 978.28125 93.863281 976.8125 92.40625 C 974.613281 91.664062 967.28125 89.097656 954.8125 84.703125 C 935.007812 75.898438 915.207031 66.363281 895.40625 56.09375 L 821.71875 19.796875 C 809.976562 13.203125 803.007812 9.535156 800.8125 8.796875 C 750.945312 -20.535156 700.710938 -53.164062 650.109375 -89.09375 C 623.710938 -108.894531 597.3125 -129.796875 570.90625 -151.796875 C 552.570312 -132.734375 534.238281 -115.867188 515.90625 -101.203125 C 490.96875 -78.460938 468.234375 -59.757812 447.703125 -45.09375 C 392.703125 -9.164062 344.671875 20.164062 303.609375 42.90625 C 220.003906 89.101562 170.132812 112.203125 154 112.203125 Z M 492.8125 -885.515625 L 496.109375 -886.609375 L 500.5 -885.515625 C 512.96875 -882.578125 525.4375 -876.707031 537.90625 -867.90625 C 551.84375 -858.375 573.84375 -836.375 603.90625 -801.90625 C 633.976562 -767.4375 653.046875 -742.867188 661.109375 -728.203125 C 665.503906 -719.410156 667.703125 -710.242188 667.703125 -700.703125 C 667.703125 -690.441406 664.398438 -681.273438 657.796875 -673.203125 C 651.203125 -665.140625 641.671875 -661.109375 629.203125 -661.109375 C 620.410156 -661.109375 613.078125 -664.039062 607.203125 -669.90625 C 602.804688 -673.570312 598.773438 -677.609375 595.109375 -682.015625 L 586.3125 -695.203125 C 567.238281 -723.078125 539.003906 -758.28125 501.609375 -800.8125 L 482.90625 -821.71875 C 473.375 -834.914062 467.875 -843.710938 466.40625 -848.109375 C 464.9375 -851.046875 464.203125 -854.347656 464.203125 -858.015625 C 464.203125 -865.347656 468.238281 -871.945312 476.3125 -877.8125 L 485.109375 -882.21875 Z M 492.8125 -885.515625 "/></g></g></g><g clip-path="url(#189bcf9180)"><g clip-path="url(#cd7ba5410f)"><g clip-path="url(#a27b446d73)"><g transform="matrix(1, 0, 0, 1, 763, 889)"><g clip-path="url(#ccdeb40997)"><g clip-path="url(#6bc5046512)"><g clip-path="url(#182fc65b4f)"><g clip-path="url(#ad64a733f2)"><path fill="#2f052f" d="M 115.40625 -58.886719 L 362.085938 109.867188 L 188.058594 364.253906 L -58.621094 195.5 Z M 115.40625 -58.886719 " fill-opacity="1" fill-rule="nonzero"/></g></g></g></g></g></g></g></g><g transform="matrix(1, 0, 0, 1, 254, 544)"><g clip-path="url(#2aca546884)"><g fill="#ffffff" fill-opacity="1"><g transform="translate(237.767544, 906.085378)"><g><path d="M 329.8125 -48.65625 C 330.5625 -42.34375 312.175781 -36.960938 274.65625 -32.515625 C 237.144531 -28.078125 218.015625 -29.015625 217.265625 -35.328125 L 202.09375 -163.46875 L 124.09375 -154.234375 L 139.265625 -26.09375 C 140.015625 -19.78125 121.632812 -14.398438 84.125 -9.953125 C 46.613281 -5.515625 27.484375 -6.453125 26.734375 -12.765625 L -17.015625 -382.140625 C -17.929688 -389.941406 0.363281 -396.0625 37.875 -400.5 C 75.382812 -404.945312 94.597656 -403.269531 95.515625 -395.46875 L 111.03125 -264.546875 L 189.03125 -273.78125 L 173.65625 -403.59375 C 173.039062 -408.789062 181.882812 -413.609375 200.1875 -418.046875 C 209.757812 -419.929688 219.191406 -421.425781 228.484375 -422.53125 L 257.015625 -424.765625 C 275.859375 -424.734375 285.585938 -422.117188 286.203125 -416.921875 Z M 329.8125 -48.65625 "/></g></g></g><g fill="#ffffff" fill-opacity="1"><g transform="translate(658.708253, 840.198963)"><g><path d="M -20.578125 -141.890625 C -11.753906 -139.890625 2.597656 -138.253906 22.484375 -136.984375 C 42.378906 -135.710938 59.492188 -138.503906 73.828125 -145.359375 C 88.171875 -152.210938 92.679688 -161.207031 87.359375 -172.34375 C 84.929688 -177.414062 80.765625 -180.925781 74.859375 -182.875 C 68.960938 -184.820312 59.40625 -185.742188 46.1875 -185.640625 C 32.96875 -185.535156 22.972656 -185.625 16.203125 -185.90625 C 9.441406 -186.195312 0.0195312 -187.492188 -12.0625 -189.796875 C -24.15625 -192.109375 -34.257812 -195.675781 -42.375 -200.5 C -65.070312 -213.28125 -83.519531 -234.519531 -97.71875 -264.21875 C -111.914062 -293.914062 -112.84375 -324.25 -100.5 -355.21875 C -88.164062 -386.195312 -64.113281 -410.238281 -28.34375 -427.34375 C -4.039062 -438.957031 19.648438 -447.070312 42.734375 -451.6875 C 65.816406 -456.300781 79.710938 -454.550781 84.421875 -446.4375 C 84.910156 -445.425781 85.394531 -444.410156 85.875 -443.390625 C 91.519531 -431.578125 94.941406 -414.867188 96.140625 -393.265625 C 97.347656 -371.671875 96.921875 -359.132812 94.859375 -355.65625 C 67.929688 -356.46875 45.945312 -352.796875 28.90625 -344.640625 C 11.863281 -336.492188 6.25 -326.347656 12.0625 -314.203125 C 15.613281 -306.773438 25.003906 -303.179688 40.234375 -303.421875 C 43.578125 -303.359375 48.34375 -303.359375 54.53125 -303.421875 C 60.726562 -303.484375 67.882812 -303.484375 76 -303.421875 C 84.113281 -303.367188 93.132812 -302.707031 103.0625 -301.4375 C 113 -300.175781 124.285156 -297.597656 136.921875 -293.703125 C 162.867188 -285.378906 182.457031 -267.382812 195.6875 -239.71875 C 212.957031 -203.601562 217.125 -169.3125 208.1875 -136.84375 C 199.25 -104.382812 174.191406 -77.894531 133.015625 -57.375 C 112.765625 -47.6875 93.648438 -40.617188 75.671875 -36.171875 C 57.691406 -31.734375 40.285156 -31.5 23.453125 -35.46875 C 6.628906 -39.445312 -5.085938 -48.351562 -11.703125 -62.1875 C -18.316406 -76.019531 -22.359375 -90.976562 -23.828125 -107.0625 C -25.304688 -123.15625 -24.222656 -134.765625 -20.578125 -141.890625 Z M -20.578125 -141.890625 "/></g></g></g><g fill="#ffffff" fill-opacity="1"><g transform="translate(978.74846, 678.278927)"><g><path d="M -133.609375 -419.390625 C -113.640625 -438.023438 -93.453125 -451.617188 -73.046875 -460.171875 C -52.640625 -468.734375 -37.972656 -468.226562 -29.046875 -458.65625 C -20.117188 -449.09375 -12.703125 -433.890625 -6.796875 -413.046875 C -0.898438 -392.203125 -0.410156 -379.484375 -5.328125 -374.890625 C -6.703125 -373.609375 -8.976562 -372.890625 -12.15625 -372.734375 C -15.332031 -372.585938 -20.960938 -370.40625 -29.046875 -366.1875 C -37.128906 -361.96875 -43.492188 -357.691406 -48.140625 -353.359375 C -64.003906 -338.546875 -71.554688 -321.003906 -70.796875 -300.734375 C -70.035156 -280.472656 -58.875 -258.789062 -37.3125 -235.6875 C -15.75 -212.582031 5.25 -200.082031 25.6875 -198.1875 C 46.132812 -196.289062 64.015625 -202.492188 79.328125 -216.796875 C 85.609375 -222.648438 91.816406 -230.097656 97.953125 -239.140625 C 104.085938 -248.191406 107.265625 -255.890625 107.484375 -262.234375 C 107.523438 -263.296875 108.363281 -264.59375 110 -266.125 C 111.644531 -267.65625 117.59375 -267.445312 127.84375 -265.5 C 138.09375 -263.5625 149.789062 -259.390625 162.9375 -252.984375 C 176.082031 -246.585938 185.207031 -240.65625 190.3125 -235.1875 C 200.257812 -224.519531 199.960938 -208.382812 189.421875 -186.78125 C 178.890625 -165.1875 162.414062 -143.925781 140 -123 C 103.90625 -89.3125 62.367188 -74.332031 15.390625 -78.0625 C -31.585938 -81.789062 -76.703125 -106.832031 -119.953125 -153.1875 C -163.210938 -199.539062 -185.253906 -247.140625 -186.078125 -295.984375 C -186.910156 -344.828125 -169.421875 -385.960938 -133.609375 -419.390625 Z M -133.609375 -419.390625 "/></g></g></g></g></g></svg>